<svg viewBox="0 0 500 500" xmlns="http://www.w3.org/2000/svg">
  <path fill="currentColor" d="M250 0C111.875 0 0 111.875 0 250C0 360.625 71.5625 454.062 170.938 487.188C183.438 489.375 188.125 481.875 188.125 475.312C188.125 469.375 187.812 449.688 187.812 428.75C125 440.312 108.75 413.438 103.75 399.375C100.938 392.188 88.75 370 78.125 364.062C69.375 359.375 56.875 347.812 77.8125 347.5C97.5 347.188 111.562 365.625 116.25 373.125C138.75 410.938 174.688 400.312 189.062 393.75C191.25 377.5 197.812 366.562 205 360.312C149.375 354.062 91.25 332.5 91.25 236.875C91.25 209.688 100.938 187.188 116.875 169.688C114.375 163.438 105.625 137.812 119.375 103.438C119.375 103.438 140.312 96.875 188.125 129.062C208.125 123.438 229.375 120.625 250.625 120.625C271.875 120.625 293.125 123.438 313.125 129.062C360.938 96.5625 381.875 103.438 381.875 103.438C395.625 137.812 386.875 163.438 384.375 169.688C400.312 187.188 410 209.375 410 236.875C410 332.812 351.562 354.062 295.938 360.312C305 368.125 312.812 383.125 312.812 406.562C312.812 440 312.5 466.875 312.5 475.312C312.5 481.875 317.188 489.688 329.688 487.188C428.438 454.062 500 360.312 500 250C500 111.875 388.125 0 250 0Z" />
</svg>
