<svg viewBox="0 0 500 500" fill="currentColor" xmlns="http://www.w3.org/2000/svg">
  <path d="M436.883 154.098C437.169 158.242 437.169 162.387 437.169 166.569C437.169 294.016 340.172 441 162.807 441V440.924C110.413 441 59.1073 425.988 15 397.684C22.6185 398.601 30.2752 399.059 37.951 399.078C81.3709 399.116 123.55 384.544 157.709 357.71C116.447 356.927 80.2635 330.017 67.6232 290.731C82.0774 293.519 96.9708 292.946 111.158 289.069C66.1721 279.978 33.8076 240.444 33.8076 194.53C33.8076 194.11 33.8076 193.709 33.8076 193.308C47.2117 200.775 62.2196 204.92 77.5712 205.378C35.2015 177.055 22.1412 120.675 47.7272 76.595C96.6843 136.852 168.917 173.483 246.458 177.36C238.687 143.861 249.303 108.757 274.354 85.2086C313.192 48.6917 374.274 50.5633 410.781 89.3912C432.377 85.1322 453.075 77.2062 472.016 65.9761C464.818 88.3026 449.752 107.268 429.627 119.319C448.74 117.065 467.414 111.947 485 104.135C472.054 123.54 455.748 140.442 436.883 154.098Z" />
</svg>
