<svg width="500" height="500" viewBox="0 0 500 500" xmlns="http://www.w3.org/2000/svg">
  <path fill="currentColor" d="M426.032 426.03H351.946V309.999C351.946 282.33 351.452 246.712 313.414 246.712C274.827 246.712 268.922 276.857 268.922 307.984V426.021H194.838V187.415H265.959V220.023C280.44 195.261 308.463 180.417 337.129 181.482C412.218 181.482 426.064 230.875 426.064 295.135L426.032 426.03ZM111.245 154.799C87.6594 154.799 68.2426 135.392 68.2426 111.805C68.2426 88.2173 87.6505 68.808 111.236 68.808C134.819 68.808 154.225 88.2128 154.229 111.796C154.229 135.378 134.826 154.797 111.245 154.799ZM148.287 426.03H74.1245V187.415H148.287V426.03ZM462.965 0.00317357H36.8946C16.8942 -0.222724 0.243771 16.0419 0 36.0439V463.916C0.234826 483.929 16.883 500.212 36.8946 499.997H462.965C483.026 500.25 499.732 483.97 500 463.916V36.0148C499.732 15.9703 483.003 -0.260746 462.965 0.00317357Z" />
</svg>
