<svg width="1766" height="548" viewBox="0 0 1766 548" fill="none" xmlns="http://www.w3.org/2000/svg">
<g clip-path="url(#clip0_268_2)">
<path d="M1638.5 154L1119 144.5V174L1638.5 154Z" fill="#748594"/>
<path d="M187.991 495.733C198.894 487.191 202.113 482.958 200.843 478.83C189.671 442.52 192.763 431.333 219.451 411.5C277.731 368.191 350.328 336.258 433.333 317.419C483.062 306.133 602.802 294.585 655.829 295.961C735.595 298.032 759.674 300.496 773.239 307.98C796.998 321.087 819.211 316.504 838.916 294.429C843.946 288.794 850.522 283.882 853.529 283.513C862.484 282.413 932.272 259.483 967.898 245.934C1012.31 229.046 1033.75 219.765 1077.47 198.507L1114.31 180.602L1178.66 177.553C1214.06 175.876 1275.73 173.116 1315.71 171.42C1355.69 169.724 1438.11 166.133 1498.87 163.441C1559.63 160.748 1618.35 158.294 1629.38 157.987C1645.79 157.53 1649.09 156.732 1647.62 153.587C1645.63 149.361 1595.8 148.128 1201.3 142.544C1111.03 141.267 1111.86 141.494 1108.77 117.169C1106.29 97.6101 1096.7 82.2513 1080.1 71.2562C1060.06 57.9773 1039.35 55.9999 974.82 61.2008C899.936 67.2362 778.921 68.134 674.365 63.4299C605.223 60.3191 533.589 70.0438 472.805 90.793C377.447 123.344 280.027 201.13 214.479 297.057C194.27 326.632 156.37 390.699 149.059 407.645C144.817 417.476 144.175 417.822 128.704 418.614C119.918 419.065 108.093 417.788 102.426 415.778C90.1016 411.406 88.8527 412.231 80.186 430.47C72.1505 447.381 73.1171 463.422 82.906 475.619C94.5965 490.184 123.344 503.256 134.356 499.013C139.051 497.204 143.167 498.274 148.989 502.817C159.969 511.384 170.441 509.482 187.991 495.733ZM149.969 491.768C145.035 484.03 141.135 482.743 138.69 488.044C136.01 493.859 122.816 492.92 109.447 485.962C83.9028 472.668 76.6993 455.121 87.7221 433.042L93.7569 420.954L103.773 424.507C126.041 432.406 163.363 424.546 178.899 408.685C190.355 396.99 183.419 395.903 167.925 406.965C151.698 418.552 151.822 417.79 172.307 380.206C238.462 258.832 321.243 173.025 420.062 123.392C459.399 103.635 489.308 93.1296 534.704 83.1242C586.184 71.7778 622.07 69.8679 721.257 73.1956C799.888 75.8336 919.785 74.0577 971.454 69.4896C1063.51 61.3508 1089.76 71.2117 1100.18 117.845C1103.75 133.79 1106.71 140.708 1111.59 144.52C1117.85 149.403 1118.01 150.188 1114.76 159.896C1112.87 165.523 1110.1 170.278 1108.59 170.464C1107.07 170.649 1090.4 171.389 1073.79 168.506C1057.18 165.623 1043.1 159.946 1040.23 159.493C1036.92 158.97 1035.21 160.244 1035.54 162.984C1035.84 165.356 1038.42 167.675 1041.29 168.137C1071.11 179.052 1099.07 178.126 1098.38 178.881C1096.38 181.071 1037.19 208.855 1009.94 220.399C958.645 242.128 857.899 276.512 854.134 273.575C851.9 271.832 860.761 257.503 869.515 248.702C873.397 244.799 882.28 239.389 889.254 236.68C903.938 230.975 907.476 224.347 895.02 225.876C880.671 227.638 858.659 244.508 850.517 259.983C837.789 284.176 831.822 292.082 820.553 299.683C807.4 308.554 792.021 309.254 777.92 301.624L768.341 296.44L773.173 287.535C783.011 269.408 804.572 245.692 822.49 233.29C840.615 220.744 845.178 214.455 835.231 215.731C821.369 217.508 772.667 266.879 765.004 286.922C762.756 292.802 762.286 292.85 727.827 290.76C595.234 282.719 472.95 294.568 374.287 325.018C313.375 343.817 242.338 381.721 198.854 418.626C173.834 439.86 151.614 462.375 152.064 466.037C152.733 471.489 158.71 467.943 170.821 454.909C177.557 447.66 183.633 441.662 184.323 441.579C185.013 441.496 186.784 451.255 188.259 463.265L190.94 485.102L181.529 491.768C168.305 501.136 155.943 501.136 149.969 491.768ZM998.934 159.135C999.612 156.417 998.617 152.984 996.723 151.506C991.798 147.663 983.977 152.688 985.853 158.49C987.942 164.953 997.365 165.417 998.934 159.135ZM1476.18 154.806C1477.67 153.779 1480.1 153.585 1481.72 154.355C1483.35 155.125 1481.25 156.073 1478.13 156.329C1474.68 156.613 1474.52 155.94 1476.18 154.806ZM1429.88 156.373C1426.97 153.328 1430.3 153.433 1433.5 153.009C1436.99 152.546 1439.73 153.624 1441.39 154.959C1444.9 157.776 1440.95 158.154 1437.77 158.323C1433.85 158.531 1431.71 158.294 1429.88 156.373ZM1406.27 156.9C1401.72 151.399 1415.12 151.912 1419.23 155.309C1422.75 158.215 1416.27 158.663 1412.21 159.089C1407.12 159.623 1407.89 158.858 1406.27 156.9ZM1385.14 155.448C1384.88 152.184 1392.61 151.194 1395.01 154.055C1399.19 159.019 1393.43 160.25 1388.08 159.265C1385.27 158.749 1385.26 156.871 1385.14 155.448ZM1359.13 156.85C1355.37 150.777 1369.56 149.5 1374.02 154.066C1381.41 161.622 1372.13 159.633 1364.63 160.553C1359.92 161.131 1360.79 159.524 1359.13 156.85ZM1335.91 157.693C1330.6 149.746 1348.01 149.722 1351.85 154.813C1354.03 157.707 1355.07 160.541 1346.04 160.829C1340.18 161.015 1338.34 161.325 1335.91 157.693ZM1315.29 162.117C1311.31 162.696 1308.36 156.027 1306.47 153.665C1304.49 151.194 1309.61 151.072 1315.69 150.781C1324.85 150.343 1325.39 151.103 1329.17 155.921C1333.03 160.849 1329.61 162.426 1325.86 161.867C1322.45 161.358 1317.48 161.797 1315.29 162.117ZM1295.38 151.3C1297.3 151.981 1300.34 156.805 1302.26 159.207C1306.19 164.12 1291.77 165.498 1290.13 160.97C1282.03 151.489 1290.86 149.695 1295.38 151.3ZM1263.24 161.349C1261.6 158.882 1259.04 155.628 1258.98 153.977C1258.93 152.373 1263.05 151.607 1269.66 151.137C1280.25 150.384 1279.56 152.776 1282.35 157.782C1287.1 166.296 1267.12 167.188 1263.24 161.349ZM1243.13 164.023C1241.27 163.454 1236.2 155.448 1237.43 152.578C1238.67 149.7 1251.45 151.393 1253.71 154.941C1254.97 156.927 1256.7 160.656 1257.91 163.315C1259.04 165.813 1248.53 165.676 1243.13 164.023ZM1219.53 164.58C1218.23 163.535 1216.17 159.876 1214.94 156.45C1213.38 152.084 1215.41 149.481 1221.12 149.961C1228.23 150.557 1230.2 151.248 1233.63 158.029C1236.19 163.075 1235.9 164.758 1230.07 165.475C1225.57 166.027 1220.83 165.624 1219.53 164.58ZM1193.55 165.238C1187.95 160.874 1186.58 150.123 1191.19 149.599C1200.9 148.494 1207.03 152.109 1209.93 158.708C1212.5 164.552 1199.45 169.845 1193.55 165.238ZM1169.4 167.295C1166.74 167.594 1165.48 163.945 1163.03 158.186C1160.43 152.09 1160.66 149.72 1167.02 148.939C1171.79 148.353 1176.32 148.782 1177.07 149.894C1187.99 165.978 1188.42 168.531 1181 167.89C1176.76 167.523 1171.51 167.058 1169.4 167.295ZM1146.45 167.697C1145.39 166.871 1142.13 163.04 1140.24 158.609C1137.76 152.808 1139.2 150.258 1145.37 149.501L1153.25 149.988L1157.21 158.264C1160.7 165.582 1157.95 168.389 1154 168.874C1150.44 169.312 1147.51 168.524 1146.45 167.697ZM1127.52 169.34C1120.64 163.977 1121.09 151.946 1122.58 150.409C1127.58 145.242 1131.68 149.77 1136.31 159.583C1140.15 167.699 1132.86 173.509 1127.52 169.34Z" fill="black"/>
<path fill-rule="evenodd" clip-rule="evenodd" d="M149.969 491.768C145.035 484.03 141.135 482.743 138.69 488.044C136.01 493.859 122.816 492.92 109.447 485.962C83.9028 472.668 76.6993 455.121 87.7221 433.042L93.7569 420.954L103.773 424.507C126.041 432.406 163.363 424.546 178.899 408.685C190.355 396.99 183.419 395.903 167.925 406.965C151.698 418.552 151.822 417.79 172.307 380.206C238.462 258.832 321.243 173.025 420.062 123.392C459.399 103.635 489.308 93.1296 534.704 83.1242C586.184 71.7778 622.07 69.8679 721.257 73.1956C799.888 75.8336 919.785 74.0577 971.454 69.4896C1063.51 61.3508 1089.76 71.2117 1100.18 117.845C1103.75 133.79 1106.71 140.708 1111.59 144.52C1117.85 149.403 1118.01 150.188 1114.76 159.896C1112.87 165.523 1110.1 170.278 1108.59 170.464C1107.07 170.649 1090.4 171.389 1073.79 168.506C1057.18 165.623 1043.1 159.946 1040.23 159.493C1036.92 158.97 1035.21 160.244 1035.54 162.984C1035.84 165.356 1038.42 167.675 1041.29 168.137C1071.11 179.052 1099.07 178.126 1098.38 178.881C1096.38 181.071 1037.19 208.855 1009.94 220.399C958.645 242.128 857.899 276.512 854.134 273.575C851.9 271.832 860.761 257.503 869.515 248.702C873.397 244.799 882.28 239.389 889.254 236.68C903.938 230.975 907.476 224.347 895.02 225.876C880.671 227.638 858.659 244.508 850.517 259.983C837.789 284.176 831.822 292.082 820.553 299.683C807.4 308.554 792.021 309.254 777.92 301.624L768.341 296.44L773.173 287.535C783.011 269.408 804.572 245.692 822.49 233.29C840.615 220.744 845.178 214.455 835.231 215.731C821.369 217.508 772.667 266.879 765.004 286.922C762.756 292.802 762.286 292.85 727.827 290.76C595.234 282.719 472.95 294.568 374.287 325.018C313.375 343.817 242.338 381.721 198.854 418.626C173.834 439.86 151.614 462.375 152.064 466.037C152.733 471.489 158.71 467.943 170.821 454.909C177.557 447.66 183.633 441.662 184.323 441.579C185.013 441.496 186.784 451.255 188.259 463.265L190.94 485.102L181.529 491.768C168.305 501.136 155.943 501.136 149.969 491.768ZM996.723 151.506C998.617 152.984 999.612 156.417 998.934 159.135C997.365 165.417 987.942 164.953 985.853 158.49C983.977 152.688 991.798 147.663 996.723 151.506Z" fill="white"/>
</g>
<defs>
<clipPath id="clip0_268_2">
<rect width="1766" height="548" fill="white"/>
</clipPath>
</defs>
</svg>
