<svg viewBox="0 0 300 300" fill="none" stroke="none" xmlns="http://www.w3.org/2000/svg">
  <path d="M10.1043 186.269C8.67492 182.974 7.42532 179.657 6.28839 176.34C-6.5105 139.021 -0.746987 100.644 32.6175 67.3167C87.9213 12.063 264.549 -16.2385 290.551 9.73545C297.654 16.8305 300.581 35.8894 299.905 60.8401C299.298 83.4296 295.718 110.843 289.606 138.627C278.394 189.552 258.65 241.691 232.906 267.406C177.591 322.649 108.408 302.196 53.0932 246.942C34.1034 227.973 19.2222 207.374 10.1043 186.269Z" fill="url(#paint0_linear_804_93)"/>
  <path d="M299.025 34.7557C299.886 42.3208 300.168 51.1347 299.906 60.8401C299.298 83.4296 295.718 110.843 289.606 138.627C278.394 189.552 258.65 241.691 232.906 267.406C183.346 316.902 122.653 305.632 70.7764 263.011C59.383 249.174 50.2288 234.71 43.874 220.001C42.4447 216.707 41.1951 213.39 40.0582 210.073C27.2593 172.753 33.0228 134.377 66.3872 101.049C112.207 55.2712 241.305 27.9937 299.025 34.7557Z" fill="url(#paint1_linear_804_93)"/>
  <path d="M299.109 75.9896C297.647 95.2004 294.408 116.799 289.606 138.627C278.394 189.552 258.65 241.691 232.906 267.406C189.307 310.948 137.093 307.464 89.8448 276.979C86.9502 271.896 84.3761 266.765 82.1465 261.604C80.7172 258.31 79.4676 254.993 78.3306 251.676C65.5317 214.356 71.2952 175.98 104.66 142.653C142.041 105.305 234.85 80.272 299.109 75.9896Z" fill="url(#paint2_linear_804_93)"/>

  <defs>
    <linearGradient id="paint0_linear_804_93" x1="246.219" y1="232.273" x2="10.7491" y2="86.0018" gradientUnits="userSpaceOnUse">
      <stop stop-color="#0BB8DA"/>
      <stop offset="1" stop-color="#434DD0"/>
    </linearGradient>
    <linearGradient id="paint1_linear_804_93" x1="252.272" y1="239.889" x2="43.2926" y2="110.09" gradientUnits="userSpaceOnUse">
      <stop stop-color="#0BB8DA"/>
      <stop offset="1" stop-color="#434DD0"/>
    </linearGradient>
    <linearGradient id="paint2_linear_804_93" x1="258.403" y1="249.428" x2="81.5313" y2="138.058" gradientUnits="userSpaceOnUse">
      <stop stop-color="#01D1F1"/>
      <stop offset="1" stop-color="#494EC9"/>
    </linearGradient>
  </defs>
</svg>
