<svg viewBox="0 0 966 888" fill="none" xmlns="http://www.w3.org/2000/svg">
  <path vector-effect="non-scaling-stroke"  d="M620 13.6395L660.189 36.8425C666.067 40.2365 669.689 46.5089 669.689 53.297V99.703C669.689 106.491 666.067 112.763 660.189 116.157L620 139.36C614.121 142.754 606.879 142.754 601 139.36L560.811 116.157C554.933 112.763 551.311 106.491 551.311 99.703V53.297C551.311 46.5089 554.933 40.2365 560.811 36.8425L601 13.6395C606.879 10.2455 614.121 10.2455 620 13.6395Z" stroke="currentColor" />
  <path vector-effect="non-scaling-stroke"  d="M620 192.639L802.217 297.842C808.096 301.236 811.717 307.509 811.717 314.297V524.703C811.717 531.491 808.096 537.763 802.217 541.157L620 646.36C614.121 649.754 606.879 649.754 601 646.36L418.783 541.157C412.904 537.763 409.283 531.491 409.283 524.703V314.297C409.283 307.509 412.904 301.236 418.783 297.842L601 192.639C606.879 189.245 614.121 189.245 620 192.639Z" stroke="currentColor" />
  <path vector-effect="non-scaling-stroke"  d="M343 404.639L459.399 471.842C465.278 475.236 468.899 481.509 468.899 488.297V622.703C468.899 629.491 465.278 635.763 459.399 639.157L343 706.36C337.121 709.754 329.879 709.754 324 706.36L207.601 639.157C201.722 635.763 198.101 629.491 198.101 622.703V488.297C198.101 481.509 201.722 475.236 207.601 471.842L324 404.639C329.879 401.245 337.121 401.245 343 404.639Z" stroke="currentColor" />
  <path vector-effect="non-scaling-stroke"  d="M740 141.64L798.375 175.343C804.254 178.737 807.875 185.009 807.875 191.797V259.203C807.875 265.991 804.254 272.263 798.375 275.657L740 309.36C734.121 312.754 726.879 312.754 721 309.36L662.625 275.657C656.746 272.263 653.125 265.991 653.125 259.203V191.797C653.125 185.009 656.746 178.737 662.625 175.343L721 141.64C726.879 138.245 734.121 138.245 740 141.64Z" stroke="currentColor" />
  <path vector-effect="non-scaling-stroke"  d="M820 264.639L838.538 275.342C844.417 278.736 848.038 285.009 848.038 291.797V313.203C848.038 319.991 844.417 326.263 838.538 329.657L820 340.36C814.121 343.754 806.879 343.754 801 340.36L782.462 329.657C776.583 326.263 772.962 319.991 772.962 313.203V291.797C772.962 285.009 776.583 278.736 782.462 275.342L801 264.639C806.879 261.245 814.121 261.245 820 264.639Z" stroke="currentColor" />
  <path vector-effect="non-scaling-stroke"  d="M620 760.639L704.356 809.342C710.235 812.736 713.856 819.009 713.856 825.797V923.203C713.856 929.991 710.235 936.263 704.356 939.657L620 988.36C614.121 991.754 606.879 991.754 601 988.36L516.644 939.657C510.765 936.263 507.144 929.991 507.144 923.203V825.797C507.144 819.009 510.765 812.736 516.644 809.342L601 760.639C606.879 757.245 614.121 757.245 620 760.639Z" stroke="currentColor" />
  <path vector-effect="non-scaling-stroke"  d="M174 69.6395L247.964 112.343C253.842 115.737 257.464 122.009 257.464 128.797V214.203C257.464 220.991 253.842 227.263 247.964 230.657L174 273.36C168.121 276.754 160.879 276.754 155 273.36L81.0363 230.657C75.1576 227.263 71.5363 220.991 71.5363 214.203V128.797C71.5363 122.009 75.1576 115.737 81.0363 112.343L155 69.6395C160.879 66.2455 168.121 66.2455 174 69.6395Z" stroke="currentColor" />
  <path vector-effect="non-scaling-stroke"  d="M199.798 477.5L0.000120918 375.5" stroke="currentColor" />
  <line vector-effect="non-scaling-stroke" x1="97.8401" y1="683.111" x2="198.84" y2="631.111" stroke="currentColor" />
  <line vector-effect="non-scaling-stroke" x1="410.844" y1="304.891" x2="253.844" y2="224.891" stroke="currentColor" />
  <line vector-effect="non-scaling-stroke" x1="609.298" y1="190" x2="609.298" y2="4.30212e-08" stroke="currentColor" />
  <path vector-effect="non-scaling-stroke"  d="M609.801 649L609.801 758" stroke="currentColor" />
  <path vector-effect="non-scaling-stroke"  d="M333.298 709L333.298 818" stroke="currentColor" />
  <path vector-effect="non-scaling-stroke"  d="M333 0L333 401" stroke="currentColor" />
  <path vector-effect="non-scaling-stroke"  d="M205.5 478C205.5 482.142 202.142 485.5 198 485.5C193.858 485.5 190.5 482.142 190.5 478C190.5 473.858 193.858 470.5 198 470.5C202.142 470.5 205.5 473.858 205.5 478Z" fill="currentColor" />
  <path vector-effect="non-scaling-stroke"  d="M341 400.5C341 404.642 337.642 408 333.5 408C329.358 408 326 404.642 326 400.5C326 396.358 329.358 393 333.5 393C337.642 393 341 396.358 341 400.5Z" fill="currentColor" />
  <circle vector-effect="non-scaling-stroke" cx="468.5" cy="478.5" r="7.5" fill="currentColor" />
  <circle vector-effect="non-scaling-stroke" cx="409.5" cy="303.5" r="7.5" fill="currentColor" />
  <circle vector-effect="non-scaling-stroke" cx="609.5" cy="189.5" r="7.5" fill="currentColor" />
  <circle vector-effect="non-scaling-stroke" cx="811.5" cy="304.5" r="7.5" fill="currentColor" />
  <circle vector-effect="non-scaling-stroke" cx="811.5" cy="533.5" r="7.5" fill="currentColor" />
  <circle vector-effect="non-scaling-stroke" cx="609.5" cy="648.5" r="7.5" fill="currentColor" />
  <circle vector-effect="non-scaling-stroke" cx="609.5" cy="757.5" r="7.5" fill="currentColor" />
  <circle vector-effect="non-scaling-stroke" cx="333" cy="817.5" r="7.5" fill="currentColor" />
  <circle vector-effect="non-scaling-stroke" cx="198.5" cy="630.5" r="7.5" fill="currentColor" />
  <circle vector-effect="non-scaling-stroke" cx="98.5" cy="682.5" r="7.5" fill="currentColor" />
</svg>
