<svg viewBox="0 0 549 789" fill="currentColor" xmlns="http://www.w3.org/2000/svg">
  <path d="M540.53 526.076C539.282 526.073 538.051 526.357 536.947 526.901C535.842 527.445 534.896 528.234 534.192 529.198L368.474 421.447C369.125 420.382 369.473 419.179 369.484 417.952C369.484 416.053 368.678 414.231 367.242 412.888C365.807 411.545 363.86 410.791 361.83 410.791C361.315 410.79 360.802 410.838 360.299 410.934C360.765 409.182 361.002 407.383 361.003 405.577V235.764C362.197 235.391 363.351 234.911 364.447 234.332L383.538 224.034C386.553 222.398 389.057 220.05 390.798 217.225C392.539 214.4 393.456 211.196 393.458 207.935V187.31C393.453 184.051 392.535 180.85 390.794 178.028C389.053 175.205 386.551 172.86 383.538 171.225L364.401 160.913C362.739 160.027 360.95 159.366 359.089 158.95V87.5219C359.091 85.0424 358.394 82.6062 357.069 80.4588C355.744 78.3114 353.838 76.5286 351.542 75.2901L284.55 39.0961C282.255 37.8579 279.652 37.2062 277.003 37.2062C274.354 37.2062 271.751 37.8579 269.456 39.0961L202.434 75.2901C200.136 76.5264 198.227 78.3087 196.902 80.4566C195.577 82.6045 194.881 85.0418 194.886 87.5219V105.368L166.09 89.8279C164.591 89.0154 162.999 88.3621 161.344 87.88C162.408 86.6239 162.99 85.0706 162.998 83.4685C163.006 81.678 162.297 79.9496 161.01 78.624C159.724 77.2984 157.953 76.4718 156.048 76.3071V35.6729C159.333 35.5086 162.532 34.6256 165.386 33.0947L207.669 10.2496C210.877 8.52005 213.542 6.02986 215.393 3.03C217.245 0.0301361 218.219 -3.3734 218.217 -6.83762V-52.5135C218.221 -55.978 217.247 -59.3821 215.395 -62.3822C213.543 -65.3823 210.878 -67.8723 207.669 -69.6008L165.386 -92.4459C162.516 -93.9953 159.295 -94.8885 155.986 -95.0526V-142.949C157.94 -143.132 159.744 -144.012 161.024 -145.405C162.305 -146.798 162.964 -148.598 162.866 -150.433C162.768 -152.268 161.919 -153.997 160.496 -155.263C159.073 -156.529 157.185 -157.236 155.221 -157.236C153.257 -157.236 151.369 -156.529 149.946 -155.263C148.523 -153.997 147.674 -152.268 147.576 -150.433C147.478 -148.598 148.137 -146.798 149.418 -145.405C150.698 -144.012 152.502 -143.132 154.456 -142.949V-95.0813C150.878 -95.026 147.374 -94.119 144.275 -92.4459L101.992 -69.5291C98.7867 -67.7977 96.1255 -65.3067 94.2765 -62.307C92.4275 -59.3073 91.4559 -55.9047 91.4595 -52.4419V-6.76602C91.4574 -3.3035 92.4297 0.0985413 94.2786 3.09802C96.1274 6.09752 98.7877 8.58875 101.992 10.3213L144.275 33.1664C147.374 34.8395 150.878 35.7465 154.456 35.8018V76.4073C153.137 76.5209 151.873 76.9525 150.786 77.6598C149.699 78.3672 148.827 79.3262 148.255 80.4431C147.683 81.5601 147.43 82.7968 147.521 84.0325C147.613 85.2682 148.045 86.4606 148.776 87.4933C146.477 87.9888 144.269 88.7996 142.224 89.8995L-40.702 188.728C-42.2749 189.593 -43.7385 190.621 -45.065 191.793C-45.7252 190.936 -46.5798 190.226 -47.5676 189.715C-48.5554 189.203 -49.6518 188.903 -50.7784 188.834C-51.9051 188.766 -53.0339 188.931 -54.0841 189.319C-55.1343 189.707 -56.0798 190.307 -56.8529 191.077L-183.182 98.9659C-181.607 96.3983 -180.779 93.4899 -180.778 90.5297V1.52698C-180.771 -1.44177 -181.599 -4.35999 -183.179 -6.93448C-184.759 -9.50897 -187.036 -11.6491 -189.78 -13.1397L-272.065 -57.5408C-274.818 -59.0218 -277.937 -59.8021 -281.113 -59.8039H-281.618V-125.646C-279.664 -125.83 -277.86 -126.709 -276.58 -128.102C-275.299 -129.495 -274.64 -131.296 -274.738 -133.131C-274.837 -134.966 -275.685 -136.695 -277.108 -137.961C-278.531 -139.227 -280.419 -139.933 -282.383 -139.933C-284.347 -139.933 -286.236 -139.227 -287.658 -137.961C-289.081 -136.695 -289.93 -134.966 -290.028 -133.131C-290.126 -131.296 -289.467 -129.495 -288.187 -128.102C-286.906 -126.709 -285.103 -125.83 -283.149 -125.646V-59.7609C-285.635 -59.5188 -288.039 -58.7918 -290.206 -57.6268L-372.491 -13.2257C-374.738 -12.0052 -376.676 -10.3438 -378.171 -8.35587L-463.319 -52.1841C-462.901 -53.0884 -462.688 -54.0636 -462.691 -55.0486C-462.691 -56.465 -463.14 -57.8497 -463.981 -59.0274C-464.822 -60.2051 -466.018 -61.123 -467.416 -61.665C-468.815 -62.207 -470.354 -62.3488 -471.839 -62.0725C-473.324 -61.7962 -474.688 -61.1141 -475.758 -60.1126C-476.829 -59.111 -477.558 -57.835 -477.853 -56.4458C-478.148 -55.0566 -477.997 -53.6167 -477.417 -52.3081C-476.838 -50.9995 -475.857 -49.881 -474.598 -49.0941C-473.339 -48.3072 -471.859 -47.8872 -470.346 -47.8872C-469.093 -47.8838 -467.859 -48.1681 -466.751 -48.715C-465.644 -49.2618 -464.696 -50.0547 -463.992 -51.0239L-378.952 -7.25299C-380.6 -4.65146 -381.473 -1.68367 -381.478 1.34077V90.2433C-381.477 93.2157 -380.641 96.1356 -379.053 98.7099C-377.465 101.284 -375.181 103.423 -372.43 104.91L-290.145 149.311C-287.39 150.794 -284.268 151.575 -281.09 151.575C-277.911 151.575 -274.789 150.794 -272.034 149.311L-189.749 104.91C-187.438 103.649 -185.456 101.922 -183.947 99.854L-57.6949 191.893C-58.4017 192.929 -58.8118 194.118 -58.8856 195.345C-58.9594 196.572 -58.6945 197.796 -58.1163 198.899C-57.5381 200.003 -56.666 200.949 -55.5841 201.646C-54.5022 202.343 -53.2468 202.767 -51.9387 202.879C-52.3178 204.468 -52.5128 206.091 -52.5204 207.72V329.207L-105.857 300.647C-109.487 298.686 -113.605 297.654 -117.797 297.654C-121.99 297.654 -126.108 298.686 -129.738 300.647L-254.077 367.707C-254.988 368.201 -255.862 368.752 -256.695 369.354C-257.142 368.187 -257.906 367.148 -258.911 366.34C-259.917 365.531 -261.129 364.981 -262.43 364.743C-263.731 364.505 -265.076 364.587 -266.333 364.981C-267.59 365.375 -268.715 366.068 -269.6 366.991L-349.482 311.547C-348.585 309.868 -348.413 307.931 -349.002 306.138C-349.591 304.344 -350.894 302.83 -352.643 301.912C-354.392 300.993 -356.452 300.739 -358.396 301.203C-360.339 301.667 -362.017 302.813 -363.082 304.403C-364.147 305.993 -364.517 307.906 -364.115 309.744C-363.713 311.583 -362.571 313.206 -360.924 314.278C-359.278 315.349 -357.253 315.787 -355.271 315.5C-353.289 315.213 -351.501 314.223 -350.278 312.736L-270.488 368.123C-271.219 369.235 -271.61 370.513 -271.621 371.818C-271.624 373.65 -270.877 375.413 -269.533 376.745C-268.189 378.077 -266.35 378.877 -264.395 378.979C-265.461 381.551 -266.011 384.285 -266.018 387.043V521.321C-266.001 523.954 -265.482 526.563 -264.487 529.027C-266.417 529.161 -268.222 529.974 -269.537 531.303C-270.852 532.632 -271.58 534.377 -271.575 536.188C-271.565 537.349 -271.25 538.491 -270.657 539.511L-350.936 588.71C-352.345 587.429 -354.225 586.704 -356.189 586.684C-358.153 586.664 -360.05 587.351 -361.488 588.603C-362.926 589.855 -363.794 591.577 -363.913 593.411C-364.032 595.245 -363.393 597.052 -362.127 598.458C-360.862 599.863 -359.068 600.76 -357.116 600.963C-355.163 601.165 -353.203 600.658 -351.639 599.545C-350.076 598.433 -349.029 596.801 -348.716 594.987C-348.403 593.173 -348.847 591.315 -349.957 589.799L-269.845 540.686C-269.016 541.667 -267.926 542.428 -266.684 542.892C-265.443 543.357 -264.093 543.509 -262.769 543.334C-261.445 543.158 -260.193 542.662 -259.138 541.893C-258.083 541.124 -257.262 540.11 -256.756 538.952C-255.894 539.587 -254.983 540.162 -254.031 540.671L-129.754 607.803C-126.125 609.767 -122.005 610.8 -117.813 610.796H-117.614L-113.909 696.319C-115.863 696.502 -117.667 697.382 -118.947 698.775C-120.228 700.168 -120.887 701.968 -120.788 703.803C-120.69 705.638 -119.842 707.367 -118.419 708.633C-116.996 709.9 -115.107 710.606 -113.144 710.606C-111.18 710.606 -109.291 709.9 -107.868 708.633C-106.445 707.367 -105.597 705.638 -105.499 703.803C-105.4 701.968 -106.06 700.168 -107.34 698.775C-108.621 697.382 -110.424 696.502 -112.378 696.319L-116.083 610.796C-112.482 610.575 -108.981 609.596 -105.841 607.932L18.4209 540.657C22.0522 538.7 25.0681 535.883 27.1646 532.488C29.261 529.093 30.3637 525.241 30.3618 521.321V463.141L142.3 523.613C144.434 524.766 146.748 525.597 149.159 526.076C148.403 527.007 147.903 528.096 147.701 529.249C147.499 530.403 147.602 531.585 148.001 532.692C148.399 533.8 149.082 534.799 149.988 535.603C150.894 536.407 151.997 536.992 153.2 537.305L155.94 650.127C155.726 650.127 155.512 650.127 155.282 650.127C153.903 650.116 152.546 650.455 151.355 651.106C150.164 651.757 149.183 652.698 148.517 653.828C147.85 654.958 147.522 656.235 147.568 657.525C147.614 658.815 148.031 660.07 148.776 661.156C147.453 661.604 146.173 662.155 144.949 662.803L66.2764 705.313C62.7107 707.236 59.7493 710.004 57.6907 713.338C55.632 716.672 54.5487 720.455 54.5498 724.306V809.298C54.5487 813.148 55.632 816.931 57.6907 820.265C59.7493 823.6 62.7107 826.367 66.2764 828.29L144.949 870.7C148.519 872.634 152.572 873.653 156.698 873.653C160.824 873.653 164.877 872.634 168.448 870.7L247.135 828.19C250.678 826.261 253.618 823.496 255.66 820.17C257.701 816.845 258.774 813.076 258.77 809.241V724.248C258.774 720.399 257.694 716.617 255.638 713.282C253.582 709.948 250.623 707.18 247.059 705.256L168.448 662.746C166.533 661.71 164.472 660.934 162.324 660.44C162.851 659.457 163.128 658.374 163.136 657.274C163.137 655.719 162.597 654.205 161.597 652.962C160.597 651.719 159.192 650.814 157.594 650.385L154.67 537.563C154.854 537.563 155.037 537.563 155.236 537.563C157.266 537.563 159.213 536.809 160.649 535.466C162.084 534.123 162.891 532.301 162.891 530.402C162.883 528.645 162.185 526.953 160.931 525.646C162.695 525.157 164.391 524.475 165.983 523.613L348.909 424.784C350.999 423.655 352.889 422.23 354.512 420.559C354.992 421.719 355.788 422.742 356.819 423.527C357.851 424.312 359.083 424.832 360.395 425.036C361.707 425.24 363.053 425.12 364.3 424.689C365.548 424.258 366.654 423.531 367.509 422.578L533.35 530.402C532.692 531.813 532.537 533.385 532.909 534.885C533.282 536.385 534.161 537.733 535.416 538.729C536.671 539.724 538.236 540.315 539.879 540.413C541.521 540.511 543.154 540.111 544.534 539.272C545.915 538.434 546.969 537.201 547.542 535.757C548.115 534.314 548.175 532.736 547.713 531.258C547.252 529.78 546.293 528.48 544.98 527.552C543.667 526.624 542.069 526.116 540.423 526.105L540.53 526.076ZM-190.499 103.864L-272.785 148.266C-275.308 149.627 -278.169 150.343 -281.082 150.343C-283.995 150.343 -286.856 149.627 -289.379 148.266L-371.68 103.864C-374.199 102.5 -376.291 100.542 -377.747 98.184C-379.203 95.8264 -379.972 93.1524 -379.977 90.4295V1.52698C-379.972 -1.19781 -379.203 -3.87361 -377.747 -6.23351C-376.291 -8.59338 -374.199 -10.5549 -371.68 -11.9223L-289.379 -56.3234C-286.859 -57.6931 -283.996 -58.4146 -281.082 -58.4146C-278.167 -58.4146 -275.305 -57.6931 -272.785 -56.3234L-190.499 -11.9223C-187.98 -10.5549 -185.888 -8.59338 -184.432 -6.23351C-182.977 -3.87361 -182.207 -1.19781 -182.202 1.52698V90.4295C-182.207 93.1524 -182.976 95.8264 -184.432 98.184C-185.888 100.542 -187.98 102.5 -190.499 103.864ZM167.636 663.891L246.324 706.402C249.658 708.218 252.422 710.823 254.338 713.956C256.255 717.089 257.255 720.639 257.239 724.248V809.241C257.237 812.842 256.223 816.38 254.299 819.499C252.376 822.619 249.61 825.211 246.278 827.015L167.591 869.526C164.256 871.327 160.473 872.276 156.622 872.276C152.771 872.276 148.988 871.327 145.653 869.526L67.0266 827.015C63.6934 825.212 60.925 822.62 58.9987 819.501C57.0723 816.381 56.0555 812.843 56.05 809.241V724.248C56.0555 720.646 57.0723 717.108 58.9987 713.988C60.925 710.869 63.6934 708.277 67.0266 706.474L145.699 663.963C146.988 663.275 148.347 662.709 149.756 662.273C150.517 663.015 151.441 663.596 152.464 663.974C153.486 664.352 154.584 664.52 155.683 664.466C156.781 664.411 157.854 664.136 158.828 663.659C159.803 663.182 160.656 662.513 161.329 661.7C163.545 662.143 165.673 662.906 167.636 663.963V663.891ZM382.68 172.443C385.47 173.95 387.787 176.117 389.4 178.726C391.012 181.336 391.862 184.296 391.866 187.31V207.935C391.862 210.949 391.012 213.909 389.4 216.519C387.787 219.128 385.47 221.295 382.68 222.802L363.605 233.115C362.742 233.568 361.841 233.955 360.911 234.275V207.906C360.913 206.253 360.713 204.604 360.314 202.993C361.724 203.239 363.179 203.109 364.513 202.619C365.848 202.128 367.008 201.297 367.862 200.219C368.717 199.142 369.23 197.862 369.345 196.525C369.459 195.187 369.17 193.847 368.51 192.656C367.85 191.465 366.845 190.472 365.611 189.789C364.377 189.106 362.963 188.761 361.529 188.794C360.096 188.826 358.701 189.234 357.504 189.972C356.306 190.71 355.355 191.748 354.757 192.967C353.091 191.267 351.155 189.818 349.016 188.671L334.963 181.079L351.496 172.156C353.71 170.959 355.562 169.253 356.877 167.201C358.192 165.149 358.927 162.817 359.013 160.426C360.62 160.815 362.164 161.402 363.605 162.173L382.68 172.443ZM316.944 190.762L333.432 181.853L348.235 189.845C350.501 191.076 352.517 192.671 354.19 194.557C353.851 196.156 354.105 197.814 354.909 199.259C355.714 200.705 357.021 201.85 358.615 202.507C359.125 204.267 359.382 206.083 359.38 207.906V234.762C357.755 235.189 356.077 235.411 354.39 235.421C351.164 235.42 347.997 234.624 345.204 233.115L326.129 222.802C323.339 221.295 321.022 219.128 319.41 216.519C317.798 213.909 316.947 210.949 316.944 207.935V190.762ZM196.356 107.803L320.542 174.892C317.266 178.303 315.451 182.724 315.444 187.31V189.945L283.724 207.133C281.657 208.249 279.313 208.837 276.927 208.837C274.54 208.837 272.196 208.249 270.129 207.133L203.153 170.953C201.089 169.835 199.374 168.229 198.181 166.296C196.989 164.363 196.359 162.171 196.356 159.939V107.803ZM316.944 187.31C316.96 182.968 318.732 178.792 321.904 175.622L331.931 181.036L316.944 189.129V187.31ZM323.068 174.605C324.006 173.788 325.032 173.063 326.129 172.443L345.219 162.13C348.012 160.62 351.18 159.825 354.405 159.824C355.432 159.836 356.457 159.932 357.466 160.111C357.421 162.302 356.773 164.445 355.586 166.334C354.398 168.223 352.71 169.794 350.685 170.896L333.401 180.234L323.068 174.605ZM196.402 87.5219C196.404 85.2897 197.032 83.097 198.225 81.1639C199.418 79.2307 201.134 77.6249 203.199 76.5076L270.175 40.3278C272.242 39.2115 274.586 38.6238 276.972 38.6238C279.359 38.6238 281.703 39.2115 283.77 40.3278L350.761 76.5076C352.826 77.6261 354.54 79.2321 355.733 81.165C356.926 83.0979 357.555 85.2899 357.558 87.5219V158.678C356.547 158.517 355.523 158.431 354.497 158.421C351.009 158.422 347.582 159.282 344.561 160.913L325.486 171.225C324.131 171.959 322.873 172.839 321.736 173.846L196.463 106.185L196.402 87.5219ZM164.697 -91.2284L206.98 -68.3833C209.957 -66.7737 212.429 -64.4603 214.149 -61.6749C215.868 -58.8895 216.775 -55.7301 216.778 -52.5135V-6.83762C216.773 -3.62126 215.866 -0.462448 214.147 2.32268C212.427 5.1078 209.956 7.42149 206.98 9.03218L164.697 31.8773C162.049 33.2825 159.088 34.0916 156.048 34.2406V-93.6203C159.09 -93.4621 162.052 -92.6431 164.697 -91.2284ZM145.117 31.8773L102.819 9.03218C99.8469 7.41859 97.3796 5.10387 95.6631 2.31911C93.9465 -0.465637 93.0408 -3.62296 93.0363 -6.83762V-52.5135C93.0392 -55.7284 93.9443 -58.8863 95.661 -61.6713C97.3777 -64.4563 99.8459 -66.7708 102.819 -68.3833L145.117 -91.2284C147.985 -92.7723 151.224 -93.6101 154.532 -93.6633V34.3122C151.224 34.259 147.985 33.4212 145.117 31.8773ZM28.8462 521.321C28.8432 524.992 27.8092 528.598 25.8479 531.778C23.8866 534.958 21.0667 537.6 17.6707 539.439L-106.622 606.571C-110.018 608.411 -113.873 609.379 -117.797 609.379C-121.722 609.379 -125.577 608.411 -128.973 606.571L-253.266 539.439C-254.347 538.867 -255.372 538.206 -256.327 537.463C-256.242 537.038 -256.196 536.606 -256.19 536.174C-256.175 534.419 -256.85 532.72 -258.086 531.4C-259.322 530.079 -261.034 529.23 -262.895 529.012C-263.92 526.547 -264.439 523.923 -264.426 521.278V387.043C-264.426 384.249 -263.828 381.482 -262.665 378.908C-260.848 378.657 -259.187 377.802 -257.987 376.501C-256.787 375.199 -256.127 373.537 -256.128 371.818C-256.141 371.501 -256.176 371.185 -256.236 370.873C-255.298 370.149 -254.3 369.498 -253.25 368.925L-128.958 301.793C-125.561 299.954 -121.707 298.985 -117.782 298.985C-113.858 298.985 -110.003 299.954 -106.607 301.793L-52.5051 331.012V405.491C-52.5027 408.271 -51.9419 411.026 -50.8518 413.612H-51.1886C-52.6109 413.62 -54.0029 413.998 -55.2083 414.705C-56.4137 415.411 -57.3849 416.418 -58.0129 417.612C-58.6409 418.806 -58.9008 420.14 -58.7636 421.464C-58.6265 422.789 -58.0975 424.052 -57.2361 425.111C-56.3748 426.17 -55.215 426.983 -53.8871 427.46C-52.5591 427.937 -51.1154 428.058 -49.718 427.81C-48.3206 427.562 -47.0247 426.954 -45.9756 426.055C-44.9266 425.157 -44.166 424.002 -43.7791 422.722C-42.7858 423.495 -41.7258 424.189 -40.6101 424.799L28.8615 462.325L28.8462 521.321ZM28.8462 460.706L-39.86 423.595C-41.1678 422.89 -42.3939 422.059 -43.5188 421.118C-43.5188 421.017 -43.5188 420.931 -43.5188 420.831C-43.5188 419.264 -44.0684 417.74 -45.0833 416.493C-46.0981 415.245 -47.5223 414.344 -49.1372 413.927C-50.3849 411.283 -51.0313 408.425 -51.0355 405.534V331.828L17.6401 368.925C21.0361 370.764 23.856 373.406 25.8173 376.586C27.7786 379.766 28.8126 383.372 28.8156 387.043L28.8462 460.706ZM348.266 423.581L165.386 522.395C163.632 523.344 161.747 524.063 159.783 524.529C158.404 523.614 156.741 523.151 155.051 523.213C153.362 523.275 151.742 523.859 150.445 524.873C147.858 524.458 145.371 523.619 143.096 522.395L30.4077 461.523V387.043C30.4063 383.971 29.7234 380.933 28.4023 378.12C29.5219 378.703 30.78 379.013 32.0611 379.022C33.575 379.022 35.0549 378.602 36.3137 377.815C37.5724 377.029 38.5535 375.91 39.1328 374.602C39.7122 373.293 39.8638 371.853 39.5684 370.464C39.2731 369.075 38.5441 367.799 37.4736 366.797C36.4031 365.796 35.0392 365.113 33.5544 364.837C32.0695 364.561 30.5305 364.703 29.1318 365.245C27.7332 365.787 26.5377 366.705 25.6967 367.882C24.8556 369.06 24.4066 370.445 24.4066 371.861C24.4066 372.004 24.4066 372.147 24.4066 372.291C22.7024 370.486 20.6964 368.953 18.4668 367.75L-50.959 330.253V207.906C-50.9588 206.27 -50.7481 204.64 -50.3313 203.051C-48.4366 202.873 -46.681 202.04 -45.4072 200.716C-44.1333 199.392 -43.4328 197.671 -43.4423 195.889C-43.4498 194.85 -43.6952 193.825 -44.1618 192.882C-42.8511 191.694 -41.3911 190.66 -39.8141 189.802L143.096 90.9737C145.223 89.8624 147.529 89.0834 149.924 88.6678C151.28 89.9036 153.077 90.6257 154.969 90.6944C156.86 90.7632 158.712 90.1738 160.166 89.0401C161.977 89.508 163.716 90.1916 165.34 91.074L194.886 107.03V159.91C194.881 162.39 195.577 164.827 196.902 166.975C198.227 169.123 200.136 170.906 202.434 172.142L269.486 208.293C271.778 209.541 274.382 210.198 277.034 210.198C279.685 210.198 282.289 209.541 284.581 208.293L315.413 191.578V207.935C315.416 211.197 316.336 214.402 318.08 217.227C319.824 220.053 322.33 222.4 325.349 224.034L344.5 234.332C347.521 235.963 350.947 236.822 354.435 236.824C356.12 236.825 357.797 236.622 359.426 236.223V405.534C359.418 407.542 359.104 409.539 358.492 411.464C356.982 412.073 355.735 413.141 354.954 414.495C354.174 415.85 353.905 417.411 354.19 418.926C352.532 420.799 350.525 422.376 348.266 423.581Z" />
</svg>
