<svg viewBox="0 0 16 16" fill="currentColor" xmlns="http://www.w3.org/2000/svg">
  <path d="M15.4479 1.6564C15.7528 1.35146 15.7528 0.857067 15.4479 0.552133C15.1429 0.247198 14.6485 0.247198 14.3436 0.552132L8.7018 6.19394C8.31104 6.5847 7.6774 6.58443 7.28698 6.19333L1.6564 0.553081C1.35154 0.247701 0.856778 0.247488 0.551659 0.552607C0.24691 0.857356 0.246698 1.35139 0.551185 1.6564L6.18393 7.29881C6.57388 7.68943 6.57361 8.32213 6.18332 8.71242L0.552132 14.3436C0.247198 14.6485 0.247198 15.1429 0.552132 15.4479C0.857066 15.7528 1.35146 15.7528 1.6564 15.4479L7.28758 9.81668C7.67787 9.42639 8.31057 9.42612 8.70119 9.81607L14.3436 15.4488C14.6486 15.7533 15.1426 15.7531 15.4474 15.4483C15.7525 15.1432 15.7523 14.6485 15.4469 14.3436L9.80667 8.71302C9.41557 8.3226 9.4153 7.68896 9.80606 7.2982L15.4479 1.6564Z" />
</svg>
