<svg viewBox="0 0 500 500" fill="currentColor" xmlns="http://www.w3.org/2000/svg">
  <path d="M224.799 480C222.257 480 220.044 478.265 219.438 475.797L205.122 417.518C188.672 413.551 173.113 407.454 158.787 399.552L109.208 428.236C107.044 429.488 104.308 429.129 102.54 427.361L69.2281 394.049C67.431 392.252 67.0932 389.46 68.4097 387.286L95.8746 341.934C85.1355 325.773 77.1216 307.807 72.4479 288.62L24.096 275.711C21.6805 275.066 20 272.878 20 270.377L20 223.267C20 220.726 21.7352 218.513 24.2032 217.906L73.4883 205.8C78.3032 188 86.0082 171.306 96.0983 156.198L69.4927 112.266C68.1762 110.092 68.5141 107.3 70.3111 105.503L103.623 72.1907C105.391 70.4228 108.127 70.0639 110.291 71.316L158.384 99.1395C172.936 91.0654 188.769 84.8559 205.522 80.8547L219.438 24.2032C220.044 21.7352 222.257 20 224.799 20L271.909 20C274.409 20 276.597 21.6805 277.242 24.096L292.259 80.3389C308.75 84.0674 324.373 89.9298 338.789 97.6028L387.735 67.9611C389.908 66.6446 392.7 66.9825 394.497 68.7795L427.809 102.092C429.577 103.86 429.936 106.595 428.684 108.759L402.464 154.08C413.262 169.741 421.471 187.164 426.512 205.8L475.797 217.906C478.265 218.513 480 220.726 480 223.267V270.377C480 272.878 478.32 275.066 475.904 275.711L427.552 288.62C422.676 308.639 414.163 327.33 402.712 344.028L429.767 390.792C431.019 392.957 430.66 395.692 428.892 397.46L395.58 430.772C393.783 432.569 390.991 432.907 388.818 431.59L338.413 401.065C324.228 408.573 308.881 414.33 292.694 418.031L277.242 475.904C276.597 478.32 274.409 480 271.909 480H224.799ZM250 336.027C297.934 336.027 336.792 296.197 336.792 247.064C336.792 197.932 297.934 158.102 250 158.102C202.066 158.102 163.208 197.932 163.208 247.064C163.208 296.197 202.066 336.027 250 336.027Z" />
</svg>
