<svg viewBox="0 0 500 500" fill="currentColor" xmlns="http://www.w3.org/2000/svg">
  <path fill-rule="evenodd" clip-rule="evenodd" d="M232.528 371.726C231.252 372.255 229.78 371.844 228.963 370.731L209.654 344.446C200.569 345.875 191.488 346.05 182.652 345.062L163.723 369.776C162.897 370.854 161.449 371.243 160.194 370.723L136.539 360.925C135.263 360.396 134.513 359.065 134.722 357.7L139.08 329.216C130.326 323.335 122.566 315.98 116.229 307.319L89.2659 310.893C87.9189 311.072 86.6201 310.322 86.1001 309.067L76.302 285.412C75.7735 284.136 76.1845 282.664 77.2976 281.847L99.5262 265.518C98.2418 255.579 98.6385 245.594 100.563 235.91L78.0666 219.384C76.9535 218.567 76.5425 217.095 77.0711 215.818L86.8691 192.164C87.3891 190.909 88.688 190.159 90.035 190.338L119.97 194.306C125.597 187.225 132.256 180.815 139.835 175.321L135.04 143.982C134.831 142.617 135.582 141.285 136.858 140.756L160.512 130.958C161.768 130.438 163.216 130.827 164.042 131.906L183.279 157.023C192.335 155.465 201.399 155.159 210.233 156.014L228.644 130.951C229.462 129.838 230.934 129.427 232.21 129.955L255.864 139.753C257.12 140.273 257.869 141.572 257.69 142.919L253.951 171.128C262.63 176.746 270.375 183.787 276.782 192.096L304.047 187.924C305.412 187.715 306.743 188.466 307.272 189.742L317.07 213.396C317.59 214.652 317.201 216.1 316.122 216.926L294.53 233.464C296.245 244.53 295.858 255.685 293.581 266.451L316.892 284.305C317.97 285.131 318.359 286.579 317.839 287.835L308.041 311.489C307.512 312.765 306.181 313.516 304.816 313.307L273.158 308.463C267.598 315.183 261.089 321.266 253.731 326.49L258.009 358.762C258.188 360.109 257.438 361.408 256.183 361.928L232.528 371.726ZM215.239 294.195C239.307 284.225 250.534 256.145 240.316 231.475C230.097 206.805 202.302 194.888 178.234 204.857C154.166 214.827 142.939 242.907 153.157 267.577C163.376 292.247 191.171 304.164 215.239 294.195Z" />
  <path fill-rule="evenodd" clip-rule="evenodd" d="M326.857 187.168C326.027 187.168 325.305 186.601 325.107 185.795L320.433 166.77C315.063 165.475 309.984 163.485 305.307 160.905L289.122 170.269C288.415 170.678 287.523 170.561 286.945 169.983L276.071 159.109C275.484 158.522 275.374 157.611 275.803 156.901L284.769 142.096C281.264 136.82 278.647 130.955 277.122 124.691L261.337 120.477C260.549 120.267 260 119.552 260 118.736V103.357C260 102.527 260.566 101.805 261.372 101.607L277.461 97.6546C279.033 91.8439 281.548 86.3941 284.842 81.4621L276.157 67.1202C275.727 66.4106 275.837 65.4992 276.424 64.9125L287.299 54.0377C287.876 53.4606 288.769 53.3434 289.476 53.7522L305.176 62.8352C309.926 60.1994 315.095 58.1723 320.564 56.8661L325.107 38.3721C325.305 37.5665 326.027 37 326.857 37H342.236C343.052 37 343.766 37.5486 343.977 38.3372L348.879 56.6977C354.263 57.9149 359.363 59.8287 364.069 62.3335L380.047 52.657C380.757 52.2272 381.668 52.3375 382.255 52.9241L393.13 63.7989C393.707 64.3761 393.824 65.269 393.415 65.9755L384.856 80.7707C388.381 85.883 391.061 91.571 392.706 97.6546L408.795 101.607C409.601 101.805 410.168 102.527 410.168 103.357V118.736C410.168 119.552 409.619 120.267 408.83 120.477L393.046 124.691C391.454 131.227 388.675 137.328 384.937 142.779L393.769 158.046C394.178 158.752 394.061 159.645 393.483 160.222L382.609 171.097C382.022 171.684 381.111 171.794 380.401 171.364L363.946 161.399C359.316 163.85 354.306 165.73 349.021 166.938L343.977 185.83C343.766 186.619 343.052 187.168 342.236 187.168H326.857ZM335.084 140.167C350.732 140.167 363.417 127.165 363.417 111.125C363.417 95.0861 350.732 82.0836 335.084 82.0836C319.436 82.0836 306.75 95.0861 306.75 111.125C306.75 127.165 319.436 140.167 335.084 140.167Z" />
  <path fill-rule="evenodd" clip-rule="evenodd" d="M326.857 461.168C326.027 461.168 325.305 460.601 325.107 459.795L320.433 440.77C315.063 439.475 309.984 437.485 305.307 434.905L289.122 444.269C288.415 444.678 287.523 444.561 286.945 443.983L276.071 433.109C275.484 432.522 275.374 431.611 275.803 430.901L284.769 416.096C281.264 410.82 278.647 404.955 277.122 398.691L261.337 394.477C260.549 394.267 260 393.552 260 392.736V377.357C260 376.527 260.566 375.805 261.372 375.607L277.461 371.655C279.033 365.844 281.548 360.394 284.842 355.462L276.157 341.12C275.727 340.411 275.837 339.499 276.424 338.913L287.299 328.038C287.876 327.461 288.769 327.343 289.476 327.752L305.176 336.835C309.926 334.199 315.095 332.172 320.564 330.866L325.107 312.372C325.305 311.566 326.027 311 326.857 311H342.236C343.052 311 343.766 311.549 343.977 312.337L348.879 330.698C354.263 331.915 359.363 333.829 364.069 336.334L380.047 326.657C380.757 326.227 381.668 326.337 382.255 326.924L393.13 337.799C393.707 338.376 393.824 339.269 393.415 339.976L384.856 354.771C388.381 359.883 391.061 365.571 392.706 371.655L408.795 375.607C409.601 375.805 410.168 376.527 410.168 377.357V392.736C410.168 393.552 409.619 394.267 408.83 394.477L393.046 398.691C391.454 405.227 388.675 411.328 384.937 416.779L393.769 432.046C394.178 432.752 394.061 433.645 393.483 434.222L382.609 445.097C382.022 445.684 381.111 445.794 380.401 445.364L363.946 435.399C359.316 437.85 354.306 439.73 349.021 440.938L343.977 459.83C343.766 460.619 343.052 461.168 342.236 461.168H326.857ZM335.084 414.167C350.732 414.167 363.417 401.165 363.417 385.125C363.417 369.086 350.732 356.084 335.084 356.084C319.436 356.084 306.75 369.086 306.75 385.125C306.75 401.165 319.436 414.167 335.084 414.167Z" />
</svg>
