<svg viewBox="0 0 500 500" fill="none" xmlns="http://www.w3.org/2000/svg">
  <path d="M253.118 386.082C252.629 387.244 252.079 388.1 251.498 388.681C250.489 389.69 249.51 389.689 248.501 388.679C247.919 388.098 247.368 387.241 246.878 386.079L199.995 261.297C199.597 260.226 199.291 258.942 199.046 257.473C198.831 256.036 198.738 254.537 198.707 253.038C198.676 251.54 198.798 250.071 199.042 248.603C199.255 247.166 199.56 245.882 199.988 244.781L246.76 120.041C247.249 118.879 247.799 118.023 248.38 117.442C249.45 116.372 250.49 116.311 251.499 117.321C252.081 117.902 252.571 118.82 252.999 120.043L299.882 244.825C300.617 247.089 301.016 249.811 301.018 253.053C301.019 256.295 300.653 259.048 299.89 261.281L253.118 386.082ZM249.948 273.951C255.698 273.954 260.622 271.907 264.688 267.841C268.754 263.775 270.801 258.851 270.799 253.101C270.796 247.351 268.745 242.426 264.675 238.356C260.605 234.286 255.68 232.235 249.93 232.232C244.179 232.229 239.256 234.277 235.19 238.343C231.124 242.409 229.138 247.332 229.201 253.082C229.143 258.833 231.133 263.758 235.203 267.828C239.273 271.897 244.198 273.949 249.948 273.951Z" fill="currentColor"/>
  <circle cx="250" cy="250" r="214" stroke="currentColor" stroke-width="20" />
  <path d="M112.114 387.886L122.014 377.986M377.986 122.014L387.886 112.114M112.114 112.114L122.014 122.014M377.986 377.986L387.886 387.886M55 250H69M431 250H445M250 55V69M250 431V445" stroke="currentColor" stroke-width="4" stroke-linecap="round" />
</svg>
