<svg viewBox="0 0 500 500" fill="none" xmlns="http://www.w3.org/2000/svg">
  <path d="M239 453L160.333 244.837M239 453L317.667 244.837M239 453L416 244.837M239 453L62 244.837M160.333 244.837H62M160.333 244.837L239 153M160.333 244.837L141.345 153M160.333 244.837H317.667M62 244.837L141.345 153M317.667 244.837H416M317.667 244.837L239 153M317.667 244.837L336.655 153M416 244.837L336.655 153M239 153H141.345M239 153H336.655" stroke="currentColor" stroke-width="20" stroke-linejoin="round" stroke-linecap="round" />
  <path d="M52.1159 111.127C67.65 118.371 86.1151 111.65 93.3588 96.1159C86.1151 111.65 92.8359 130.115 108.37 137.359C92.8359 130.115 74.3708 136.836 67.1271 152.37C74.3708 136.836 67.65 118.371 52.1159 111.127Z" fill="currentColor"/>
  <path d="M170.365 32.3849C192.117 42.5279 217.973 33.1172 228.116 11.3655C217.973 33.1172 227.384 58.9729 249.135 69.1159C227.384 58.9729 201.528 68.3836 191.385 90.1353C201.528 68.3836 192.117 42.5279 170.365 32.3849Z" fill="currentColor"/>
  <path d="M343.5 59.3736C354.752 64.6205 368.127 59.7524 373.374 48.5004C368.127 59.7524 372.996 73.1275 384.248 78.3744C372.996 73.1275 359.621 77.9956 354.374 89.2476C359.621 77.9956 354.752 64.6205 343.5 59.3736Z" fill="currentColor"/>
</svg>
