<svg viewBox="0 0 500 500" fill="none" xmlns="http://www.w3.org/2000/svg">
  <path d="M149.633 212.933C149.633 218.539 150.244 223.084 151.315 226.417C152.539 229.751 154.069 233.387 156.211 237.326C156.976 238.538 157.282 239.75 157.282 240.811C157.282 242.326 156.364 243.841 154.375 245.356L144.737 251.719C143.36 252.628 141.983 253.083 140.759 253.083C139.229 253.083 137.699 252.325 136.169 250.961C134.027 248.689 132.192 246.265 130.662 243.841C129.132 241.265 127.602 238.386 125.919 234.902C113.986 248.84 98.9924 255.81 80.9395 255.81C68.0882 255.81 57.8378 252.173 50.3412 244.901C42.8447 237.629 39.0199 227.933 39.0199 215.812C39.0199 202.934 43.6096 192.48 52.9421 184.602C62.2745 176.723 74.6668 172.784 90.4249 172.784C95.6266 172.784 100.981 173.239 106.642 173.996C112.303 174.754 118.116 175.966 124.236 177.33V166.27C124.236 154.755 121.788 146.725 117.045 142.029C112.15 137.332 103.888 135.059 92.1078 135.059C86.7531 135.059 81.2454 135.665 75.5848 137.029C69.9241 138.392 64.4164 140.059 59.0617 142.18C56.6139 143.241 54.778 143.847 53.707 144.15C52.6361 144.453 51.8711 144.604 51.2592 144.604C49.1173 144.604 48.0464 143.089 48.0464 139.908V132.484C48.0464 130.06 48.3523 128.242 49.1173 127.181C49.8823 126.12 51.2592 125.06 53.4011 123.999C58.7557 121.272 65.1814 119 72.6779 117.182C80.1745 115.212 88.13 114.303 96.5446 114.303C114.751 114.303 128.061 118.394 136.628 126.575C145.043 134.756 149.327 147.18 149.327 163.845V212.933H149.633ZM87.5181 235.962C92.5668 235.962 97.7685 235.053 103.276 233.235C108.784 231.417 113.68 228.084 117.81 223.539C120.258 220.66 122.094 217.479 123.012 213.842C123.93 210.206 124.542 205.813 124.542 200.661V194.298C120.105 193.238 115.362 192.329 110.467 191.723C105.571 191.117 100.828 190.814 96.0856 190.814C85.8352 190.814 78.3386 192.783 73.2899 196.874C68.2412 200.964 65.7933 206.722 65.7933 214.297C65.7933 221.418 67.6292 226.72 71.454 230.357C75.1258 234.144 80.4805 235.962 87.5181 235.962ZM210.37 252.325C207.616 252.325 205.78 251.87 204.556 250.81C203.332 249.901 202.261 247.78 201.344 244.901L165.391 127.787C164.473 124.757 164.014 122.787 164.014 121.727C164.014 119.303 165.238 117.939 167.685 117.939H182.679C185.585 117.939 187.574 118.394 188.645 119.454C189.869 120.363 190.787 122.484 191.705 125.363L217.408 225.66L241.274 125.363C242.039 122.333 242.957 120.363 244.181 119.454C245.405 118.545 247.547 117.939 250.301 117.939H262.54C265.447 117.939 267.436 118.394 268.66 119.454C269.884 120.363 270.954 122.484 271.566 125.363L295.739 226.872L322.207 125.363C323.124 122.333 324.195 120.363 325.266 119.454C326.49 118.545 328.479 117.939 331.233 117.939H345.461C347.909 117.939 349.286 119.151 349.286 121.727C349.286 122.484 349.133 123.242 348.98 124.151C348.827 125.06 348.521 126.272 347.909 127.939L311.038 245.053C310.12 248.083 309.049 250.052 307.825 250.961C306.601 251.87 304.613 252.476 302.012 252.476H288.854C285.948 252.476 283.959 252.022 282.735 250.961C281.511 249.901 280.44 247.931 279.828 244.901L256.114 147.18L232.554 244.75C231.789 247.78 230.871 249.749 229.647 250.81C228.423 251.87 226.281 252.325 223.527 252.325H210.37ZM406.964 256.416C399.008 256.416 391.053 255.507 383.403 253.689C375.753 251.87 369.787 249.901 365.809 247.628C363.361 246.265 361.678 244.75 361.066 243.386C360.454 242.023 360.148 240.508 360.148 239.144V231.417C360.148 228.236 361.372 226.72 363.667 226.72C364.585 226.72 365.503 226.872 366.421 227.175C367.339 227.478 368.716 228.084 370.246 228.69C375.447 230.963 381.108 232.781 387.075 233.993C393.194 235.205 399.161 235.811 405.281 235.811C414.919 235.811 422.416 234.144 427.617 230.811C432.819 227.478 435.573 222.63 435.573 216.418C435.573 212.176 434.196 208.691 431.442 205.813C428.688 202.934 423.487 200.358 415.99 197.934L393.806 191.117C382.638 187.632 374.376 182.481 369.328 175.663C364.279 168.997 361.678 161.573 361.678 153.695C361.678 147.331 363.055 141.726 365.809 136.877C368.563 132.029 372.235 127.787 376.824 124.454C381.414 120.969 386.616 118.394 392.735 116.576C398.855 114.758 405.281 114 412.012 114C415.378 114 418.897 114.152 422.263 114.606C425.782 115.061 428.994 115.667 432.207 116.273C435.267 117.03 438.174 117.788 440.928 118.697C443.681 119.606 445.823 120.515 447.353 121.424C449.495 122.636 451.025 123.848 451.943 125.211C452.861 126.423 453.32 128.09 453.32 130.211V137.332C453.32 140.514 452.096 142.18 449.801 142.18C448.577 142.18 446.588 141.574 443.987 140.362C435.267 136.423 425.476 134.453 414.613 134.453C405.893 134.453 399.008 135.817 394.265 138.695C389.523 141.574 387.075 145.968 387.075 152.18C387.075 156.422 388.605 160.058 391.664 162.936C394.724 165.815 400.385 168.694 408.494 171.269L430.218 178.087C441.234 181.572 449.189 186.42 453.932 192.632C458.675 198.843 460.969 205.964 460.969 213.842C460.969 220.357 459.593 226.266 456.992 231.417C454.238 236.568 450.566 241.114 445.823 244.75C441.081 248.537 435.42 251.264 428.841 253.234C421.957 255.355 414.766 256.416 406.964 256.416Z" fill="white" />
  <path d="M435.879 330.048C385.545 366.864 312.415 386.408 249.536 386.408C161.413 386.408 82.0104 354.137 22.0379 300.504C17.2951 296.262 21.5789 290.505 27.2396 293.838C92.1078 331.108 172.122 353.683 254.89 353.683C310.732 353.683 372.082 342.168 428.535 318.533C436.95 314.745 444.14 323.987 435.879 330.048Z" fill="#FF9900" />
  <path d="M456.839 306.413C450.413 298.231 414.307 302.473 397.937 304.443C393.041 305.049 392.276 300.807 396.713 297.625C425.476 277.627 472.75 283.384 478.258 290.05C483.765 296.868 476.728 343.683 449.801 366.106C445.67 369.591 441.693 367.773 443.529 363.227C449.648 348.228 463.264 314.442 456.839 306.413Z" fill="#FF9900" />
</svg>
