<svg viewBox="0 0 500 500" fill="none" xmlns="http://www.w3.org/2000/svg">
  <path d="M75.2 250C75.2 153.461 153.461 75.2 250 75.2C288.862 75.2 324.742 87.8609 353.774 109.32C361.389 91.3972 376.734 77.5514 395.625 71.9675C355.982 39.5086 305.254 20 250 20C122.974 20 20 122.974 20 250C20 377.025 122.974 480 250 480C377.025 480 480 377.025 480 250C480 223.416 475.479 197.841 467.151 174.034C455.821 189.352 437.991 199.572 417.735 200.62C422.331 216.259 424.8 232.825 424.8 250C424.8 346.539 346.539 424.8 250 424.8C153.461 424.8 75.2 346.539 75.2 250Z" fill="#3880FF"/>
  <path d="M250 350.625C305.443 350.625 350.625 305.53 350.625 250C350.625 194.557 305.53 149.375 250 149.375C194.471 149.375 149.375 194.557 149.375 250C149.375 305.443 194.557 350.625 250 350.625Z" fill="#3880FF"/>
  <path d="M400.938 163.75C428.723 163.75 451.25 141.224 451.25 113.438C451.25 85.6508 428.723 63.1252 400.938 63.1252C373.152 63.1252 350.625 85.6508 350.625 113.438C350.625 141.224 373.152 163.75 400.938 163.75Z" fill="#3880FF"/>
</svg>
