<svg viewBox="0 0 500 500" fill="none" xmlns="http://www.w3.org/2000/svg">
  <path d="M456 37L277 170L310.101 91.5318L456 37Z" fill="#E2761B" stroke="#E2761B" stroke-linecap="round" stroke-linejoin="round"/>
  <path d="M42.6802 37.44L220.34 171.72L188.84 91.98L42.6802 37.44Z" fill="#E4761B" stroke="#E4761B" stroke-linecap="round" stroke-linejoin="round"/>
  <path d="M391.7 345.78L344 418.86L446.06 446.94L475.4 347.4L391.7 345.78Z" fill="#E4761B" stroke="#E4761B" stroke-linecap="round" stroke-linejoin="round"/>
  <path d="M23.7803 347.4L52.9403 446.94L155 418.86L107.3 345.78L23.7803 347.4Z" fill="#E4761B" stroke="#E4761B" stroke-linecap="round" stroke-linejoin="round"/>
  <path d="M149.24 222.3L120.8 265.32L222.14 269.82L218.54 160.92L149.24 222.3Z" fill="#E4761B" stroke="#E4761B" stroke-linecap="round" stroke-linejoin="round"/>
  <path d="M349.581 222.3L279.381 159.66L277.041 269.82L378.201 265.32L349.581 222.3Z" fill="#E4761B" stroke="#E4761B" stroke-linecap="round" stroke-linejoin="round"/>
  <path d="M155 418.86L215.84 389.16L163.28 348.12L155 418.86Z" fill="#E4761B" stroke="#E4761B" stroke-linecap="round" stroke-linejoin="round"/>
  <path d="M282.98 389.16L344 418.86L335.54 348.12L282.98 389.16Z" fill="#E4761B" stroke="#E4761B" stroke-linecap="round" stroke-linejoin="round"/>
  <path d="M344 418.86L282.98 389.16L287.84 428.94L287.3 445.68L344 418.86Z" fill="#D7C1B3" stroke="#D7C1B3" stroke-linecap="round" stroke-linejoin="round"/>
  <path d="M155 418.86L211.7 445.68L211.34 428.94L215.84 389.16L155 418.86Z" fill="#D7C1B3" stroke="#D7C1B3" stroke-linecap="round" stroke-linejoin="round"/>
  <path d="M213 322L162 307.213L197.989 291L213 322Z" fill="#233447" stroke="#233447" stroke-linecap="round" stroke-linejoin="round"/>
  <path d="M286 322L300.958 291L337 307.213L286 322Z" fill="#233447" stroke="#233447" stroke-linecap="round" stroke-linejoin="round"/>
  <path d="M155 418.86L163.64 345.78L107.3 347.4L155 418.86Z" fill="#CD6116" stroke="#CD6116" stroke-linecap="round" stroke-linejoin="round"/>
  <path d="M335.36 345.78L344 418.86L391.7 347.4L335.36 345.78Z" fill="#CD6116" stroke="#CD6116" stroke-linecap="round" stroke-linejoin="round"/>
  <path d="M378.2 265.32L277.04 269.82L286.4 321.84L301.34 290.52L337.34 306.9L378.2 265.32Z" fill="#CD6116" stroke="#CD6116" stroke-linecap="round" stroke-linejoin="round"/>
  <path d="M161.84 306.9L197.84 290.52L212.6 321.84L222.14 269.82L120.8 265.32L161.84 306.9Z" fill="#CD6116" stroke="#CD6116" stroke-linecap="round" stroke-linejoin="round"/>
  <path d="M120.8 265.32L163.28 348.12L161.84 306.9L120.8 265.32Z" fill="#E4751F" stroke="#E4751F" stroke-linecap="round" stroke-linejoin="round"/>
  <path d="M337.34 306.9L335.54 348.12L378.2 265.32L337.34 306.9Z" fill="#E4751F" stroke="#E4751F" stroke-linecap="round" stroke-linejoin="round"/>
  <path d="M222.14 269.82L212.6 321.84L224.48 383.22L227.18 302.4L222.14 269.82Z" fill="#E4751F" stroke="#E4751F" stroke-linecap="round" stroke-linejoin="round"/>
  <path d="M277.04 269.82L272.18 302.22L274.34 383.22L286.4 321.84L277.04 269.82Z" fill="#E4751F" stroke="#E4751F" stroke-linecap="round" stroke-linejoin="round"/>
  <path d="M286.06 321.893L274 383.079L282.64 389L335.2 348.09L337 307L286.06 321.893Z" fill="#F6851B" stroke="#F6851B" stroke-linecap="round" stroke-linejoin="round"/>
  <path d="M162 307L163.425 348.09L215.448 389L224 383.079L212.241 321.893L162 307Z" fill="#F6851B" stroke="#F6851B" stroke-linecap="round" stroke-linejoin="round"/>
  <path d="M287.3 445.759L287.84 429.057L283.34 425.106H215.48L211.34 429.057L211.7 445.759L155 419L174.8 435.163L214.94 463H283.88L324.2 435.163L344 419L287.3 445.759Z" fill="#C0AD9E" stroke="#C0AD9E" stroke-linecap="round" stroke-linejoin="round"/>
  <path d="M283.108 388.976L274.412 383H224.226L215.529 388.976L211 429L215.167 425.016H283.471L288 429L283.108 388.976Z" fill="#161616" stroke="#161616" stroke-linecap="round" stroke-linejoin="round"/>
  <path d="M463.7 179.1L479 105.66L456.14 37.44L282.98 165.96L349.58 222.3L443.72 249.84L464.6 225.54L455.6 219.06L470 205.92L458.84 197.28L473.24 186.3L463.7 179.1Z" fill="#763D16" stroke="#763D16" stroke-linecap="round" stroke-linejoin="round"/>
  <path d="M20 105.66L35.3 179.1L25.58 186.3L39.98 197.28L29 205.92L43.4 219.06L34.4 225.54L55.1 249.84L149.24 222.3L215.84 165.96L42.68 37.44L20 105.66Z" fill="#763D16" stroke="#763D16" stroke-linecap="round" stroke-linejoin="round"/>
  <path d="M443.515 249.579L349.954 222L378.398 265.082L336 348L391.815 347.279H475L443.515 249.579Z" fill="#F6851B" stroke="#F6851B" stroke-linecap="round" stroke-linejoin="round"/>
  <path d="M149.01 222L55.2077 249.579L24 347.279H107.221L163 348L120.672 265.082L149.01 222Z" fill="#F6851B" stroke="#F6851B" stroke-linecap="round" stroke-linejoin="round"/>
  <path d="M276.837 269.693L282.753 165.919L310 92H189L215.889 165.919L222.163 269.693L224.314 302.426L224.493 383H274.148L274.507 302.426L276.837 269.693Z" fill="#F6851B" stroke="#F6851B" stroke-linecap="round" stroke-linejoin="round"/>
</svg>
