<svg viewBox="0 0 500 500" fill="none" xmlns="http://www.w3.org/2000/svg">
  <path d="M250 481C377.578 481 481 377.578 481 250C481 122.422 377.578 19 250 19C122.422 19 19 122.422 19 250C19 377.578 122.422 481 250 481Z" fill="#7B3FE4" />
  <path d="M403.998 255.392V325.081C403.973 329.428 402.825 333.692 400.665 337.46C398.506 341.227 395.409 344.366 391.678 346.573L331.522 381.345C327.796 383.574 323.539 384.75 319.202 384.75C314.864 384.75 310.607 383.574 306.882 381.345L246.726 346.573C242.994 344.366 239.898 341.227 237.739 337.46C235.579 333.692 234.431 329.428 234.406 325.081V305.522L265.206 287.581V321.58L319.105 352.972L373.006 321.58V258.941L319.105 227.55L192.826 300.958C189.065 303.084 184.822 304.202 180.505 304.202C176.189 304.202 171.946 303.084 168.186 300.958L108.029 266.041C104.356 263.801 101.319 260.649 99.2113 256.889C97.104 253.129 95.9975 248.888 95.9981 244.574V174.884C96.0229 170.538 97.1716 166.273 99.3308 162.506C101.491 158.739 104.587 155.599 108.318 153.393L168.474 118.62C172.208 116.414 176.462 115.25 180.794 115.25C185.127 115.25 189.381 116.414 193.115 118.62L253.27 153.393C257.002 155.599 260.098 158.739 262.257 162.506C264.417 166.273 265.565 170.538 265.591 174.884V194.443L234.598 212.264V178.458L180.698 147.066L126.798 178.458V241.024L180.698 272.416L306.978 199.007C310.739 196.881 314.982 195.764 319.298 195.764C323.614 195.764 327.857 196.881 331.618 199.007L391.774 233.925C395.484 236.141 398.559 239.283 400.701 243.044C402.843 246.806 403.979 251.06 403.998 255.392Z" fill="white" />
</svg>
