<svg viewBox="0 0 500 500" fill="none" xmlns="http://www.w3.org/2000/svg">
  <path d="M387.266 283.277C383.281 302.473 365.571 351.746 309.085 378.425L286.405 352.917L248.129 391.394C226.351 391.102 204.935 385.778 185.555 375.838C166.175 365.898 149.357 351.611 136.414 334.093C140.479 335.36 144.678 336.151 148.925 336.45C155.195 336.564 161.979 334.265 161.979 323.739V219.907C162.067 217.238 161.53 214.586 160.411 212.161C159.292 209.736 157.622 207.607 155.534 205.942C153.446 204.277 150.998 203.123 148.385 202.572C145.772 202.021 143.067 202.089 140.484 202.769C122.76 206.853 108.606 251.071 108.606 251.071C108.408 230.656 112.658 210.442 121.061 191.836C129.464 173.229 141.819 156.676 157.266 143.326C177.598 125.74 202.487 114.258 229.062 110.206C209.71 121.232 198.841 139.213 198.841 154.295C198.841 178.575 213.466 175.633 217.794 172.062V312.199C218.531 313.957 219.491 315.613 220.65 317.126C222.584 319.8 225.129 321.974 228.073 323.464C231.017 324.955 234.275 325.72 237.575 325.695C252.214 325.695 271.209 308.985 271.209 308.985V195.556C271.209 184.016 262.511 170.077 253.799 165.292C253.799 165.292 269.924 162.436 282.363 171.962C284.7 169.107 287.184 166.376 289.804 163.778C318.84 135.285 346.191 127.173 368.971 123.117C368.971 123.117 327.552 155.666 327.552 199.341C327.552 231.819 328.395 311.028 328.395 311.028C343.763 325.867 366.614 304.429 387.266 283.277Z" fill="white" />
  <path d="M250 19C204.313 19 159.651 32.5479 121.663 57.9305C83.6756 83.3131 54.0678 119.39 36.5839 161.6C19.1001 203.81 14.5255 250.256 23.4387 295.066C32.3519 339.875 54.3525 381.036 86.6584 413.342C118.964 445.647 160.125 467.648 204.934 476.561C249.744 485.474 296.19 480.9 338.4 463.416C380.61 445.932 416.687 416.324 442.07 378.337C467.452 340.349 481 295.687 481 250C481 188.735 456.663 129.979 413.342 86.6583C370.021 43.3374 311.265 19 250 19ZM250 471.745C206.14 471.745 163.264 458.739 126.796 434.371C90.3272 410.003 61.9038 375.368 45.1197 334.846C28.3357 294.324 23.945 249.735 32.5028 206.717C41.0606 163.7 62.1825 124.186 93.1975 93.173C124.213 62.16 163.728 41.0406 206.746 32.4856C249.764 23.9306 294.353 28.3242 334.874 45.1108C375.395 61.8974 410.028 90.3231 434.393 126.793C458.759 163.263 471.762 206.139 471.759 250C471.759 308.814 448.396 365.22 406.808 406.807C365.22 448.395 308.814 471.759 250 471.759V471.745Z" fill="white" />
</svg>
