<svg viewBox="0 0 500 500" fill="#D70000" xmlns="http://www.w3.org/2000/svg">
  <path d="M383.723 292.645C379.586 294.41 375.449 295.292 371.266 295.292C364.647 295.292 358.671 294.131 353.385 291.81C348.099 289.488 343.64 286.285 340.009 282.199C336.377 278.113 333.573 273.331 331.643 267.806C329.712 262.281 328.747 256.338 328.747 249.977C328.747 243.43 329.712 237.394 331.643 231.776C333.573 226.159 336.331 221.283 339.963 217.151C343.594 212.973 348.053 209.723 353.339 207.355C358.625 204.987 364.555 203.78 371.22 203.78C375.679 203.78 379.954 204.476 384.091 205.822C388.228 207.169 391.997 209.165 395.353 211.765C398.708 214.365 401.466 217.616 403.627 221.469C405.787 225.323 407.12 229.734 407.626 234.702H389.515C388.366 229.826 386.205 226.159 382.988 223.698C379.77 221.237 375.863 220.03 371.22 220.03C366.945 220.03 363.314 220.866 360.326 222.537C357.338 224.208 354.902 226.437 353.063 229.269C351.224 232.101 349.845 235.305 349.018 238.88C348.191 242.455 347.731 246.17 347.731 250.023C347.731 253.691 348.145 257.266 349.018 260.748C349.845 264.231 351.224 267.341 353.063 270.127C354.902 272.913 357.338 275.141 360.326 276.813C363.314 278.484 366.945 279.32 371.22 279.32C377.517 279.32 382.39 277.695 385.837 274.491C389.285 271.288 391.262 266.645 391.859 260.516H372.737V246.077H409.005V293.295H396.915L394.985 283.406C391.629 287.817 387.86 290.881 383.723 292.645Z" />
  <path d="M439.848 205.962V277.045H482V293.249H420.864V205.962H439.848Z" />
  <path d="M350.121 304.113C321.116 321.942 277.632 332.064 229.137 332.064C141.754 332.064 70.965 295.338 70.965 249.977C70.965 204.662 141.8 167.89 229.137 167.89C277.816 167.89 321.438 178.243 350.443 196.165C318.818 166.125 262.003 145.046 197.098 145C97.6257 145 17 191.987 17 249.977C17 307.967 97.6257 355 197.052 355C261.727 355 318.358 333.967 350.121 304.113Z" />
  <path d="M117.025 272.031L100.269 199.137H84.4355L109.27 294.178H124.134L145.044 219.519L165.678 294.178H180.588L206.3 199.137H189.543L172.787 272.031L152.569 199.137H137.243L117.025 272.031Z" />
  <path d="M248.121 239.159C245.813 235.862 242.905 233.355 239.489 231.637C235.981 229.873 231.919 228.991 227.395 228.991C222.317 228.991 217.747 229.919 213.778 231.73C210.039 233.448 206.854 236.002 204.269 239.298C199.514 245.38 197.021 253.97 197.021 264.138C197.021 268.641 197.668 272.913 198.914 276.72C200.16 280.574 202.053 283.963 204.453 286.795C209.531 292.738 216.778 295.895 225.41 295.895C229.934 295.895 233.627 295.431 236.719 294.456C239.397 293.62 241.197 292.506 242.674 291.531C244.567 290.278 246.275 288.745 247.844 286.981C249.137 285.449 250.291 283.777 251.306 281.967C253.06 278.717 253.937 275.652 254.122 274.074L254.261 273.006H241.936L241.889 273.888C241.566 277.927 236.304 285.124 226.933 285.124C213.547 285.124 210.362 275.374 210.131 266.784H254.999V265.809C254.999 260.284 254.445 255.223 253.337 250.813C252.091 246.216 250.383 242.316 248.121 239.159ZM225.964 240.134C235.889 240.134 241.197 245.52 242.166 256.57H210.039C210.546 247.609 217.609 240.134 225.964 240.134Z" />
  <path d="M316.993 248.259C315.793 244.405 314.039 241.016 311.777 238.184C309.423 235.259 306.561 232.984 303.283 231.405C299.867 229.78 296.036 228.944 291.881 228.944C288.05 228.991 284.588 229.826 281.542 231.451C279.003 232.752 276.741 234.609 274.802 236.93V207.772H262.523V294.131H274.202V288.235C275.217 289.581 276.556 291.02 278.31 292.274C281.634 294.688 285.742 295.895 290.497 295.895C295.62 295.895 300.237 294.735 304.114 292.46C307.576 290.417 310.53 287.492 312.838 283.777C314.869 280.527 316.393 276.674 317.408 272.356C318.285 268.641 318.747 264.556 318.747 260.563C318.793 256.245 318.193 252.066 316.993 248.259ZM305.96 262.281C305.96 269.059 304.622 274.724 302.037 278.717C299.313 282.942 295.344 285.077 290.266 285.077C282.926 285.077 274.34 279.924 274.34 265.345C274.34 258.381 275.217 252.995 276.972 248.909C279.51 243.012 283.803 240.18 290.035 240.18C296.682 240.18 301.16 242.78 303.652 248.212C305.683 252.67 305.96 258.102 305.96 262.281Z" />
</svg>
